<svg version="1.1" xmlns="http://www.w3.org/2000/svg" viewBox="0 0 849.5971727174043 319.75963983331053" width="849.5971727174043" height="319.75963983331053">
  <!-- svg-source:excalidraw -->
  
  <defs>
    <style>
      @font-face {
        font-family: "Virgil";
        src: url("https://excalidraw.com/Virgil.woff2");
      }
      @font-face {
        font-family: "Cascadia";
        src: url("https://excalidraw.com/Cascadia.woff2");
      }
    </style>
  </defs>
  <rect x="0" y="0" width="849.5971727174043" height="319.75963983331053" fill="#ffffff"></rect><g stroke-linecap="round" transform="translate(304.0342535360485 47.98756779165717) rotate(0 125.75325029451977 130.88603602082668)"><path d="M-1.13 1.27 C54.91 2.88, 107.09 2.21, 250.21 -1.33 M0.58 -0.56 C78.7 -0.21, 157.08 -0.24, 251.56 -0.42 M250.36 0.68 C252.72 78.8, 253.69 157.87, 250.58 263.21 M251.55 -0.31 C252.54 82.43, 251.74 165.79, 251.69 261.62 M252.01 260.75 C197.9 261.06, 147.11 261.72, -1.47 262.9 M250.74 262.04 C174.39 263.76, 97.5 262.4, 0.7 261.12 M-0.05 263.33 C-0.35 168.23, -1.44 74.1, 1.09 0.8 M0.66 262.13 C-1.79 177.57, -0.36 92.08, -0.11 0.71" stroke="#000000" stroke-width="1" fill="none"></path></g><g stroke-linecap="round" transform="translate(10 115.56369960913233) rotate(0 107.13579552442997 65.31717669706842)"><path d="M0 0 C0 0, 0 0, 0 0 M0 0 C0 0, 0 0, 0 0 M-0.07 5.63 C1.13 3.8, 4.45 1.95, 5.22 -0.01 M-0.36 6.62 C0.66 4.66, 2.41 3.45, 5.19 0.4 M-0.1 13.06 C3.57 8.12, 6.95 2.98, 9.15 -1.39 M0.43 12.77 C2.97 9.31, 5.62 5.87, 11.2 0.38 M1.87 17.19 C2.21 13.77, 9.51 8.78, 13.89 1.59 M-0.34 18.11 C4.24 13.41, 7.53 10.37, 14.67 -0.04 M0.69 23.69 C6.78 17.73, 10.19 11.79, 20.86 1.45 M-0.51 24.34 C4.55 17.24, 11.24 11.58, 21.05 0.26 M-1.26 32.3 C4.72 23.36, 10.87 19.68, 27.37 2.16 M0.63 29.58 C5.31 22.5, 11.23 17.35, 26.35 -0.47 M-0.23 38.47 C8.72 27.41, 14.72 18.91, 30.66 -0.35 M-0.88 36.77 C9.35 25.83, 19.33 14.98, 32.7 -0.99 M-0.56 41.29 C10.48 29.2, 19.39 17.97, 34.9 0.86 M-0.86 42.45 C11.63 28.66, 24.64 15.47, 35.9 -0.63 M0.02 47.1 C7.91 36.85, 19.17 25.62, 41.09 -0.93 M-0.3 49.32 C17.55 28.69, 34.19 10.49, 43.39 -1.02 M-0.4 53.59 C13.84 37.77, 29.05 20.37, 46.41 1.33 M-0.07 55.31 C12.06 41.93, 23.23 28.96, 47.65 0.24 M-0.55 61.22 C11.62 50.4, 21.85 34.4, 54.11 -0.2 M0.53 61.88 C11.74 47.61, 21.59 36.44, 52.18 -0.09 M1.28 69.31 C19.47 44.08, 38.93 21.2, 56.89 -0.85 M-0.97 67.08 C11.43 53.33, 24.97 39.62, 58.9 -0.59 M1.83 71.66 C17.67 51.27, 35.58 34.38, 62.76 -0.09 M0.53 72.1 C15.49 54.43, 30.86 38.72, 64.12 -0.89 M-0.41 80.24 C23.73 49.46, 50.86 21.36, 70.41 1.85 M0.42 79.9 C18.24 59.25, 35.99 37.09, 67.94 0.69 M-0.04 85.2 C18.74 65.43, 37.09 42.37, 75.12 -0.63 M-0.38 84.17 C17.75 65.67, 35.55 44.14, 74.22 -0.6 M-1.3 90.37 C16.14 70.5, 33.54 50.27, 80.08 0.87 M0.08 91.73 C28.41 60.83, 55.83 28.24, 80 0.43 M-0.94 97.3 C32.46 59.15, 65.5 21.82, 86.34 0.11 M0 97.55 C18.56 74.41, 38.79 53.91, 85.46 -0.85 M-1.49 104.89 C32.2 69.02, 60.48 31.84, 88.1 -0.39 M0.61 103.31 C33.58 63.25, 68.72 23.89, 89.31 -0.5 M-0.63 109.08 C33.89 71.9, 67.5 34.55, 94.65 -2 M0.83 109.99 C23.88 80, 49.77 50.56, 94.78 0.23 M2 114.9 C32.6 81.35, 61.38 48.18, 101.71 1.41 M0.59 114.9 C24.67 87.7, 46.88 61.43, 101.03 -0.7 M0.23 123.89 C34.2 81.4, 72.73 38.4, 105.32 -1.17 M0.25 122.03 C27.12 88.77, 57.76 54.84, 107.1 0.08 M-1.47 130.21 C40.61 84.08, 77.75 39.51, 113.21 1.52 M-0.1 129.06 C38.4 84.43, 75.25 41.96, 111.32 -0.23 M0.01 130.73 C22.62 104.89, 49.23 76.02, 118.03 -0.9 M1.35 132.45 C25.9 102.24, 51.39 73.2, 116.64 0.39 M5.73 131.98 C39.22 99.85, 68.12 62.73, 119.99 -0.83 M7.57 131.28 C33.71 101.9, 60.51 70.46, 121.3 -0.62 M12.72 131.01 C56.88 79.38, 101.38 28.13, 125.51 -1.03 M12.75 133.06 C53.2 85.37, 92.2 39.72, 127.58 0.15 M19.15 130.44 C48.69 96.73, 81.01 58.59, 132.46 1.48 M17.5 131.73 C50.63 96.57, 81.51 60.12, 133.06 -0.87 M24.35 133.68 C57.64 91.37, 96.27 49.72, 137.55 -1.19 M22.97 131.78 C57.04 92.59, 93.26 52.23, 138.08 0.11 M26.73 132.22 C72.27 81.04, 115.45 31.79, 142.15 -0.46 M28.84 132.55 C66.01 89.38, 102.61 45.59, 143.65 0.54 M35.14 133.07 C57.74 108.24, 79.76 80.75, 147.7 0.16 M32.7 132.53 C62.36 99.53, 91.27 65.61, 148.92 -0.17 M38.75 130.11 C81.34 79.94, 127.62 28.79, 153.59 0.38 M38.02 131.68 C65.77 100.9, 93.69 69.58, 153.09 -0.32 M42.41 131.46 C74.7 93.43, 108.07 55.64, 160.53 -1.47 M43.58 131.74 C84.9 85.77, 124.82 38.63, 158.87 0.38 M48.55 130.85 C78.56 98.63, 110.1 63.29, 164.42 -1.06 M49.42 132.55 C91.1 80.86, 134.44 31.92, 164.39 -0.86 M56.53 131.04 C94.08 82.23, 137.12 35.9, 167.71 -0.68 M54.24 132.37 C83.64 98.88, 111.96 65.31, 168.66 0.37 M60.53 131.12 C85.21 99.63, 114.19 69.12, 173.31 -1.88 M59.39 132.16 C93.54 93.06, 126.68 55.34, 175.5 0.04 M64.93 133.96 C96.77 96.26, 131.84 55.79, 179.94 1.91 M64.26 131.93 C93.21 102.25, 120.36 70.23, 180.98 -0.06 M70.16 133.53 C97.35 99.22, 129.14 67.88, 184.02 0.75 M70.25 131.02 C100.18 95.16, 131.22 59.98, 185.35 0.04 M76.11 130.31 C100.97 102.16, 130.04 72.17, 191.02 -0.41 M76.2 132.44 C105.75 98.25, 134.41 63.75, 190.49 0.76 M79.97 130.64 C123.87 87.09, 162.16 39.8, 197.36 1.6 M82.3 131.17 C122.72 83.93, 164.16 36.7, 195.85 -0.68 M87.63 134.11 C113.18 103.93, 140.48 72.06, 201.77 -0.41 M85.58 132.47 C122.17 93.8, 156.33 52.77, 201.84 0.03 M91.55 132.92 C121.92 98.13, 151.95 60.35, 207.19 -0.63 M91.8 132.2 C132.93 84.67, 174.3 36.49, 207.86 0.6 M98.12 131.29 C129.92 93.09, 163.6 56.47, 212.1 -0.89 M96.9 133.11 C123.89 101.49, 151.02 72.27, 211.63 0.49 M100.89 133.56 C127.84 101.91, 155.24 72.21, 215.14 2.22 M102.3 131.95 C126.98 103.02, 153.29 73.61, 215.9 0.65 M107.25 131.77 C130.67 109.17, 152.17 80.73, 214.42 8.79 M107.61 131.98 C144.17 89.94, 180.02 46.91, 215.86 7.93 M113.03 133.4 C148.97 88.21, 186.27 46.16, 216.68 14.55 M113.34 131.57 C138.72 103.2, 165.65 74.01, 216.27 13.04 M119.77 133.38 C155.73 90.04, 193.09 47.03, 217.38 18.66 M118.16 131.24 C154.52 90.77, 191.64 46.95, 215.7 19.15 M122.08 133.52 C150.51 99.7, 179.01 67.21, 215.36 26.78 M122.4 131.98 C150.03 100.98, 177.83 68.31, 215.22 26.02 M129.5 133.87 C148.7 110.12, 167.44 86.8, 218.01 31.18 M129.94 131.57 C161.39 95.27, 193.73 57.01, 215.6 30.94 M133.88 132.13 C161.63 100.08, 191.28 67.02, 216.66 38.14 M133.64 132.88 C165.47 95.25, 196.62 58.42, 216.84 37.18 M139.3 130.96 C161.43 105.27, 186.32 77.7, 215.8 44.05 M139.31 132.19 C169.62 99.6, 198.02 66.65, 215.38 44.92 M145.35 133.42 C167.45 104.06, 193.52 74.99, 215.74 51.02 M145.14 131.5 C162.79 108.98, 183.02 88.02, 216.85 49.89 M149.11 130.29 C166.83 116.03, 181.16 96.46, 215.28 54.59 M149.62 132.85 C169.27 109.97, 188.95 87.76, 216.8 55.95 M156.44 131.5 C176.66 106.5, 203.53 77.03, 216.88 63.75 M154.99 132.61 C171.8 113.15, 186.77 95.55, 215.93 62.07 M159.92 133.44 C173.36 118.82, 186.6 104.53, 214.07 68.38 M161.17 131.82 C178.02 112.63, 196.32 92, 215.61 68.72 M166.19 130.42 C180.46 113.33, 195.24 99.53, 216.7 75.35 M165.22 132.5 C179.26 117.78, 191.49 104.96, 215.07 74.9 M169.81 129.94 C189.79 111.05, 207.74 91.42, 217.52 80.15 M171.24 131.93 C182.49 119.8, 193.55 105.69, 216.2 80.69 M176.68 132.16 C191.87 117.55, 206.74 97.38, 214.91 86.52 M175.85 133 C184.76 121.43, 194.7 111.86, 216.21 87.84 M181.88 133.23 C194.87 116.45, 209.25 103.61, 218.03 94.57 M182.07 132.51 C195.04 117.15, 207.78 103.15, 216.93 92.82 M189.07 132.66 C193.08 125.86, 201.22 116.33, 214.27 100.16 M186.84 131.47 C194 124.8, 200.2 118.27, 216.27 99.14 M192.33 132.71 C200.82 121.86, 210.72 112.53, 214.41 107.01 M192.88 131.43 C197.43 125.12, 203.19 120.24, 215.46 106.4 M199.57 133.77 C203.78 125.4, 210.68 118.31, 215.29 110.34 M198.15 132.79 C204.29 126.2, 208.37 120.29, 215.81 110.83 M202.44 133.61 C208.57 128.41, 209.15 124.76, 214.56 116.55 M203.81 131.14 C207.65 125.8, 213.13 122.3, 215.42 117.92 M207.85 131.63 C211.72 128.84, 213.69 125.23, 215.83 123.09 M207.99 131.7 C211.34 129.29, 213.89 125.21, 216.33 123.33" stroke="#ced4da" stroke-width="0.5" fill="none"></path><path d="M-1.24 1.43 C68.63 -0.79, 134.41 2.09, 215.21 -1.58 M0.13 0.59 C47.02 -2.27, 93.3 -1.64, 213.89 -0.39 M214.33 -0.36 C213.02 50.39, 215.56 103.19, 212.83 129.48 M215.08 0.63 C214.49 31.43, 213.52 64.79, 214.52 131.59 M215.81 130.1 C158.74 133.02, 102.97 133.01, 0.12 132.37 M213.75 130.1 C148.83 129.4, 82.57 130.99, -0.2 131.1 M0.65 128.88 C1.21 81.11, 2.72 32.98, 0.26 -0.45 M-0.31 130.85 C-1.1 81.24, -0.41 33.19, 0.04 0.92" stroke="#000000" stroke-width="1" fill="none"></path></g><g transform="translate(308.57342052868034 10) rotate(0 38 22.5)"><text x="0" y="32" font-family="Virgil, Segoe UI Emoji" font-size="36px" fill="#e67700" text-anchor="start" style="white-space: pre;" direction="ltr">Pliny</text></g><g transform="translate(35.70653430428365 143.67719793088762) rotate(0 82 37.5)"><text x="82" y="18" font-family="Virgil, Segoe UI Emoji" font-size="20px" fill="#000000" text-anchor="middle" style="white-space: pre;" direction="ltr">Your</text><text x="82" y="43" font-family="Virgil, Segoe UI Emoji" font-size="20px" fill="#000000" text-anchor="middle" style="white-space: pre;" direction="ltr">Markdown / MDX</text><text x="82" y="68" font-family="Virgil, Segoe UI Emoji" font-size="20px" fill="#000000" text-anchor="middle" style="white-space: pre;" direction="ltr">Files</text></g><g stroke-linecap="round" transform="translate(320.5324296753205 138.1676105695024) rotate(0 108.73129321172644 32.320166969371)"><path d="M0 0 C0 0, 0 0, 0 0 M0 0 C0 0, 0 0, 0 0 M0.41 5.79 C1.47 3.65, 3.74 2.29, 5.48 0.55 M0.06 6.53 C1.74 4.64, 3.25 2.5, 4.96 0.11 M0.05 12.52 C5.71 8.46, 8.82 1.13, 11.68 0.19 M0.46 11.63 C4.02 7.39, 7.18 3.76, 10.32 -0.61 M1 16.53 C5.14 13.32, 5.26 12.14, 16.18 0.1 M-0.94 18.96 C5.05 13.04, 9.03 7.1, 15.16 -0.37 M0.73 23.15 C4.37 15.93, 11.22 9.72, 21.58 0.85 M-0.06 24.58 C4.38 17.89, 10.58 12.93, 21.27 0.24 M-0.66 29.39 C4.68 22.36, 12.99 15.72, 28.1 1.6 M0.34 29.79 C9.98 19.42, 18.74 9.12, 25.63 1 M-2.16 38.49 C7.01 29.93, 13.68 19.34, 30.88 -0.59 M0.01 36.79 C8.64 26, 16.97 16.14, 32.76 0.71 M0.82 43.67 C13.97 25.35, 27.53 11.73, 35.65 0.75 M0.01 43.19 C9.89 32.07, 18.97 21.42, 36.04 -0.56 M-0.93 47.82 C12.25 33.67, 27.17 20.47, 40.54 0.81 M-0.58 48.61 C15.13 32.11, 28.89 13.01, 41.67 0.75 M-1.14 55.52 C15.73 35.79, 31.07 17.15, 47.53 -1.09 M0.65 53.66 C16.03 36.76, 31.18 20.88, 48.09 0.1 M1.23 60.51 C11.05 48.85, 21.02 35.98, 52.29 -2.13 M0.84 60.32 C13.8 44.34, 28.8 27.84, 53.94 -0.96 M0.61 64.25 C17.99 47.51, 31.94 30.8, 59.54 -0.61 M0.47 65.47 C15.18 49.77, 28.52 32.87, 57.45 -0.35 M7.41 63.56 C21.25 48.44, 36.87 34.52, 64.95 -0.62 M6.1 65.42 C27.91 41.3, 49.38 18.94, 64.45 0.75 M10.83 67.32 C24.12 49.5, 38.41 33.73, 70.51 -0.59 M11.19 65.61 C28.74 45.39, 46.47 24.94, 69.75 0.29 M18.58 64.47 C30.97 46.75, 47.49 32.34, 74.39 -1.98 M17.86 65.51 C36.02 44.41, 54.1 22.35, 75.1 -0.4 M24.3 64 C44.57 41.67, 65.44 13.39, 78.33 -1.85 M22.45 65.51 C38.54 47.58, 52.45 30.42, 78.6 -0.24 M29.45 66.21 C48.8 41.32, 71.82 16.89, 85.53 -1.54 M27.4 65.21 C40.39 51.79, 52.44 37.64, 84.7 -0.16 M34.68 66.2 C45.29 51.71, 55.77 38.47, 91.99 0.73 M32.72 65.77 C50.98 44.64, 70.14 21.81, 89.56 -0.69 M37.73 65.14 C53.07 51.11, 67.04 32.98, 96.39 1.26 M37.91 66.17 C51.98 49.27, 65.23 34.26, 95.06 0.25 M44.75 65.74 C66.57 38.74, 88.8 12.44, 99.5 -1.8 M43.43 65.57 C62.68 43.44, 80.65 22, 100.18 -0.25 M48.21 63.54 C70 41.28, 91.39 18.77, 106.02 -1.05 M48.57 65.56 C69.91 43.44, 88.39 19.61, 106.97 0.15 M54.3 66.38 C69.32 47.93, 82.45 31.01, 111.96 -0.46 M54.98 66.57 C76.66 40.04, 98.94 13.4, 111.97 -0.6 M60.08 66.43 C78.36 43.87, 98.11 20.54, 117.89 0.74 M59.85 66.84 C72.91 48.91, 86.33 32.35, 115.5 0.12 M64.2 63.85 C79.5 47.82, 97.99 28.63, 123.53 -0.32 M64.73 65.01 C80.84 46.78, 98.07 28.51, 122.4 0.12 M69.54 66.45 C90.59 43.97, 108.48 19.05, 126.48 1.51 M70.17 66.72 C82.89 51.09, 95.22 38.59, 126.69 1.03 M76.4 65.77 C97.33 40.52, 118.57 18.94, 131.41 -0.53 M75.03 65.63 C87.62 50.33, 100.43 37.41, 132.92 -0.71 M81.91 64.48 C99.99 43.67, 120.74 20.82, 137.4 -1.66 M79.94 65.73 C94.7 48.94, 109.11 31.25, 137.55 0.54 M85.88 63.73 C110.22 39.44, 132.31 13.08, 143.88 1.73 M85.19 65.7 C100.36 47.66, 116.02 31.1, 142.95 -0.15 M90.21 66.57 C108.66 47.03, 126.07 27.09, 149.95 -0.48 M90.2 65.17 C112.16 42.26, 131.3 20.12, 148.75 0.09 M96.71 65.25 C111.46 48.7, 127.05 31.13, 152.29 -0.81 M97.47 65.05 C114.05 45.21, 133.04 24.7, 153.86 0.23 M102.54 64.7 C121.74 43.7, 141.6 19.22, 160.51 1.23 M101.96 65.85 C115.3 52.16, 126.24 37.51, 157.89 -0.35 M106.02 65.79 C119.05 48.93, 131.99 37.56, 163.04 -1.49 M107.12 66 C130.62 39.4, 152.7 14.85, 165.03 0.43 M114.05 64.8 C128.28 50.07, 141.68 32.33, 170.5 -0.36 M112.21 66.15 C130.18 44.5, 148.39 22.07, 169.56 -0.29 M119.97 64.73 C137.38 40.57, 161.13 16.06, 173.59 0.32 M118.35 65.45 C134.36 46.41, 151.19 26.55, 175.75 -0.05 M122.95 66.73 C135.8 53.26, 145.49 37.64, 178.44 -1.19 M123.88 65.94 C140.1 45.28, 160.09 25.15, 179.32 -0.7 M129.83 65.42 C141.19 51.96, 150.39 39.76, 184.48 -0.83 M128.34 64.78 C146.05 45.32, 164.02 24.98, 185.34 -0.15 M134.52 64.3 C149.26 45.41, 165.74 28.19, 191.86 -1.24 M133.89 66.64 C155.64 42.11, 177.57 16.44, 189.7 -0.01 M139.9 67.11 C162.19 43.34, 182.97 17.15, 195.29 -0.47 M139.25 65.94 C160.66 41.77, 180.11 17.65, 197.04 0.69 M145.11 65.23 C161.06 45.37, 179.3 21.62, 199.41 -0.54 M145.13 65.22 C156.88 51.62, 170.02 36.93, 202.18 -0.14 M151.55 65.02 C168.17 44.49, 187.49 19.23, 208.68 -0.15 M150.19 65.4 C164.74 49.72, 180.57 31.02, 206.08 0.59 M154.12 67.21 C175.91 39.9, 198.29 13.96, 210.76 0.79 M154.45 66.14 C174.49 41.77, 195.22 18.54, 211.24 -0.46 M159.21 66.29 C181.1 38.25, 206.21 11.73, 218.36 0.47 M161.25 66.14 C173.41 51.16, 187.97 34.85, 217.66 -0.81 M164.01 65.85 C178.76 49.33, 195.26 33.32, 218.69 0.85 M164.68 65.44 C177.96 51.43, 190.57 36.35, 220.33 2.45 M169.74 66.74 C189.12 44.44, 207.82 21.09, 221.24 8.75 M170.83 66.47 C189.35 45.34, 208.34 23.84, 221.08 8.71 M176.31 66.69 C187.82 54.63, 197.22 43.17, 219.79 15.71 M176.59 66.64 C185.22 54.18, 194.35 43.66, 220.63 14.58 M181 67.91 C197.45 47.94, 211.71 30.66, 222.41 18.9 M180.27 66.92 C190.61 55.35, 199.61 45.77, 220.71 19.82 M187.62 65.22 C197.67 54.21, 206.42 39.82, 220.79 25.76 M186.95 64.83 C196.78 54.71, 204.93 44.89, 219.37 26.82 M189.95 65.48 C198.41 59.31, 206.51 52.68, 219.4 34.07 M191.9 66.85 C203.12 53.81, 215.45 40.69, 220.28 33.72 M197.58 66.87 C204.12 56.6, 214.97 45.85, 218.94 39.39 M196.5 64.62 C203.33 57.02, 211.55 49.45, 220.21 38.68 M203.28 66.36 C207.76 60.09, 217.64 50.6, 221.51 47.13 M201.69 65.37 C209.24 59.36, 213.73 52.03, 220.22 44.95 M208.86 66.93 C212.69 58.99, 217.09 55.11, 221.23 52.14 M207.92 66.12 C212.67 60.52, 217.73 55.96, 220.46 51.43 M212.86 65.62 C214.7 63.69, 218.53 60.42, 219.6 58.16 M212.76 66.05 C215.26 62.94, 217.65 59.82, 220.57 57.43" stroke="#fd7e14" stroke-width="0.5" fill="none"></path><path d="M-1.35 -0.05 C54.27 0.78, 108.17 -0.13, 216.9 0.11 M0.5 -0.06 C72.16 -1.31, 144.1 -0.99, 217.53 -0.3 M216.32 1.75 C218.63 18.04, 215.81 34.99, 218.67 65.14 M218.16 0.52 C217.6 16.98, 217.58 35.48, 217.73 63.82 M217.14 63.65 C135.19 65.09, 57.75 67, 0.75 65.45 M217.71 64.95 C155.22 64.01, 94.61 64.55, -0.71 64.41 M1.66 64.45 C-1.36 46.13, -1.07 32.91, 1.3 1.89 M0.53 63.94 C-0.79 45.04, 0.05 23.55, 0.77 0.86" stroke="#000000" stroke-width="1" fill="none"></path></g><g transform="translate(370.58162064926205 159.63300548767026) rotate(0 51 12.5)"><text x="51" y="18" font-family="Virgil, Segoe UI Emoji" font-size="20px" fill="#000000" text-anchor="middle" style="white-space: pre;" direction="ltr">Templates</text></g><g stroke-linecap="round" transform="translate(322.30522249942464 221.3340307284686) rotate(0 108.7312932117265 31.91027083387621)"><path d="M0 0 C0 0, 0 0, 0 0 M0 0 C0 0, 0 0, 0 0 M-1.02 7.04 C0.9 5.63, 1.89 3.33, 4.58 0.17 M-0.15 6.36 C1.31 4.43, 2.58 2.86, 5.33 0.68 M0.68 12.96 C4.09 6.36, 8.05 3.4, 9.65 0.36 M0.03 12.58 C3.2 8.96, 5.92 5.65, 9.96 -0.69 M-0.93 17.34 C3.79 12.58, 10.33 9.01, 13.64 1.27 M-0.58 18.13 C5.8 12.63, 9.97 4.56, 14.77 1.22 M-1.15 25.04 C6.88 15.68, 13.39 7.19, 21.29 -1.38 M0.65 23.18 C7.69 15.93, 14.48 9.66, 21.85 -0.19 M1.23 30.03 C5.34 24.75, 9.73 18.32, 25.39 -1.66 M0.83 29.84 C6.45 22.17, 14.12 14.1, 27.03 -0.5 M-0.7 35.28 C10.04 25.8, 17.57 16.47, 33.29 -0.91 M-0.84 36.5 C7.73 27.88, 15.01 17.95, 31.21 -0.64 M0.85 40.62 C9.49 31.25, 20.1 23.1, 38.05 -0.16 M-0.46 42.49 C13.77 26.73, 27.85 12.86, 37.55 1.21 M-0.98 50.42 C8.73 36.51, 19.58 24.69, 44.26 -0.88 M-0.63 48.72 C12.42 33.7, 25.68 18.4, 43.51 0 M1.52 53.62 C11.26 38.82, 25.19 27.38, 47.48 -1.51 M0.8 54.65 C15.81 37.22, 30.66 18.87, 48.19 0.06 M1.98 59.18 C20.72 38.63, 40.07 12.1, 52.09 -2.14 M0.14 60.69 C15.17 44, 28.02 28.05, 52.35 -0.53 M3.2 65.92 C22.29 41.31, 45.06 17.18, 58.63 -1.08 M1.15 64.92 C14 51.65, 25.9 37.67, 57.79 0.31 M8.44 65.91 C19.04 51.42, 29.52 38.18, 65.74 0.44 M6.47 65.48 C24.73 44.35, 43.9 21.52, 63.32 -0.98 M11.48 64.85 C26.67 51, 40.48 33.06, 69.49 1.72 M11.67 65.88 C25.57 49.16, 38.67 34.32, 68.16 0.72 M18.5 65.44 C40.32 38.45, 62.55 12.15, 73.26 -2.09 M17.18 65.27 C36.43 43.15, 54.4 21.7, 73.93 -0.54 M21.97 63.25 C43.51 41.27, 64.67 19.02, 79.12 -0.59 M22.33 65.27 C43.44 43.41, 61.69 19.84, 80.07 0.61 M28.05 66.09 C43.07 47.64, 56.2 30.71, 85.72 -0.75 M28.73 66.28 C50.41 39.75, 72.7 13.11, 85.72 -0.89 M34.49 65.38 C52.53 43.09, 72.05 20.03, 91.64 0.45 M34.26 65.79 C47.16 48.06, 60.41 31.68, 89.26 -0.18 M37.96 63.55 C53.25 47.53, 71.75 28.34, 97.28 -0.61 M38.49 64.72 C54.6 46.48, 71.82 28.22, 96.15 -0.17 M43.95 65.4 C64.77 43.19, 82.43 18.53, 100.23 1.22 M44.58 65.68 C57.16 50.2, 69.35 37.87, 100.44 0.74 M50.15 65.48 C71.08 40.23, 92.32 18.65, 105.16 -0.82 M48.79 65.34 C61.37 50.04, 74.19 37.11, 106.67 -1 M56.32 63.43 C74.17 42.89, 94.69 20.31, 111.15 -1.95 M54.35 64.69 C68.94 48.09, 83.18 30.59, 111.31 0.25 M59.64 63.44 C83.72 39.44, 105.55 13.38, 116.98 2.2 M58.94 65.41 C73.94 47.57, 89.43 31.2, 116.04 0.31 M64.62 65.52 C82.88 46.2, 100.1 26.48, 123.7 -0.77 M64.61 64.12 C86.34 41.48, 105.25 19.6, 122.5 -0.2 M70.47 64.96 C85.04 48.6, 100.47 31.21, 125.39 -0.35 M71.22 64.76 C87.6 45.15, 106.38 24.89, 126.96 0.69 M76.95 63.65 C95.91 42.92, 115.54 18.71, 134.26 0.94 M76.37 64.81 C89.56 51.27, 100.36 36.78, 131.64 -0.64 M79.77 65.5 C92.66 48.8, 105.46 37.6, 136.13 -1.02 M80.87 65.71 C104.11 39.4, 125.95 15.14, 138.12 0.89 M87.8 64.51 C102.03 49.78, 115.44 32.03, 144.26 -0.65 M85.96 65.86 C103.94 44.21, 122.14 21.77, 143.31 -0.58 M93.72 64.44 C110.89 40.57, 134.39 16.34, 146.69 0.79 M92.1 65.16 C107.92 46.34, 124.56 26.7, 148.85 0.41 M96.7 66.44 C109.55 52.97, 119.24 37.35, 152.19 -1.49 M97.63 65.65 C113.86 44.99, 133.85 24.86, 153.07 -0.99 M103.58 65.13 C114.82 51.82, 123.88 39.77, 157.58 -0.37 M102.1 64.49 C119.61 45.26, 137.38 25.15, 158.43 0.31 M108.28 64.01 C123.02 45.12, 139.5 27.9, 165.62 -1.53 M107.65 66.35 C129.39 41.82, 151.32 16.15, 163.45 -0.31 M113.65 66.82 C135.7 43.33, 156.24 17.41, 168.39 0 M113 65.65 C134.17 41.75, 153.38 17.91, 170.13 1.15 M118.87 64.94 C134.81 45.08, 153.05 21.33, 173.16 -0.84 M118.89 64.93 C130.64 51.33, 143.77 36.64, 175.93 -0.43 M125.3 64.73 C141.7 44.46, 160.79 19.46, 181.78 0.31 M123.95 65.11 C138.32 49.62, 153.98 31.12, 179.18 1.06 M127.87 66.92 C149.66 39.61, 172.04 13.67, 184.51 0.5 M128.21 65.85 C148.24 41.47, 168.97 18.25, 184.99 -0.75 M132.97 65.99 C154.6 38.26, 179.46 12.04, 191.46 0.93 M135.01 65.85 C147.01 51.04, 161.41 34.9, 190.76 -0.35 M137.76 65.56 C153.02 48.45, 170.02 31.86, 194.41 -1.71 M138.43 65.15 C152.15 50.61, 165.21 35.03, 196.05 -0.1 M144.15 65.7 C166.09 40.45, 187.32 14.17, 202.21 0.16 M145.24 65.42 C166.2 41.53, 187.62 17.23, 202.05 0.12 M150.07 66.4 C164.71 50.68, 177.29 35.57, 206.67 0.33 M150.34 66.35 C161.7 50.75, 173.59 37.06, 207.51 -0.8 M155.41 66.86 C178.47 39.36, 199.17 14.68, 213.88 -1.77 M154.68 65.87 C168.99 49.88, 181.83 35.89, 212.18 -0.85 M161.37 64.93 C178.69 45.25, 194.96 22.2, 218.16 -1.7 M160.71 64.54 C177.02 47.17, 191.48 30.08, 216.74 -0.64 M164.36 64.43 C178.76 51.56, 192.62 38.29, 219.4 3.59 M166.31 65.8 C187.78 41.23, 210.22 16.5, 220.28 3.24 M171.33 66.58 C187.46 45.16, 207.94 23.33, 218.94 8.91 M170.25 64.33 C184.89 47.51, 200.92 30.96, 220.2 8.2 M177.69 65.32 C191.87 47.91, 211.6 27.1, 221.51 16.65 M176.1 64.33 C192.3 48.29, 205.3 31.17, 220.21 14.47 M182.66 66.71 C195.98 47.45, 209.95 32.63, 221.26 21.71 M181.67 65.85 C195.9 49.33, 210.29 34.1, 220.46 20.96 M187.15 64.34 C196.62 54.09, 209.6 41.23, 219.08 28.13 M186.97 65.11 C198.14 51.66, 209.28 38.19, 220.86 26.81 M193.14 66.63 C204.29 53.26, 215.65 41.43, 219.8 33.19 M191.63 64.78 C199.64 57.72, 206.85 49.06, 220.4 32.42 M196.9 65.02 C204.83 60.23, 208.57 52.25, 219.56 38.79 M198.18 65.08 C206.61 55.58, 215.91 45.04, 220.57 39.83 M203.61 65.56 C206.97 60.6, 210.8 58.81, 219.04 47.57 M202.77 64.32 C207.84 59, 213.89 52.14, 220.62 45.69 M206.2 64.61 C209.95 63.4, 212.97 59.74, 222.01 50.57 M207.91 65.47 C212.45 62.46, 214.84 57.22, 220.33 51.86 M213.82 64.92 C215.56 63.66, 218.24 60.17, 219.34 58.17 M213.68 65.18 C216.09 62.62, 218.33 59.95, 220.43 57.87" stroke="#fd7e14" stroke-width="0.5" fill="none"></path><path d="M1.45 -1.33 C85.83 -1.01, 172.9 1.26, 218.54 0.4 M0.7 0.28 C68.31 -1.31, 135.65 -1.89, 217.4 -0.53 M217.36 0.6 C219.91 26.68, 218.62 48.64, 218.77 64.1 M217.87 -0.51 C217.85 23.62, 216.89 48.6, 217.07 63.1 M218.44 62.16 C172.42 62.21, 123.01 64.56, 0.49 63.62 M216.76 64.27 C152.45 63.53, 86.46 63.1, -0.4 63.22 M0.47 62.89 C-2.42 44.09, -1.8 26.13, 0.32 0.92 M-0.32 64.32 C-0.48 49, 1.04 35.2, 0.01 0.31" stroke="#000000" stroke-width="1" fill="none"></path></g><g transform="translate(376.0365157111511 243.0624396796089) rotate(0 55 12.5)"><text x="55" y="18" font-family="Virgil, Segoe UI Emoji" font-size="20px" fill="#000000" text-anchor="middle" style="white-space: pre;" direction="ltr">Components</text></g><g stroke-linecap="round" transform="translate(320.89912092248574 64.11918007433619) rotate(0 108.15512780432431 30.063459254083426)"><path d="M0 0 C0 0, 0 0, 0 0 M0 0 C0 0, 0 0, 0 0 M-0.7 6.3 C1.08 5.5, 3.29 2.94, 4.73 0.23 M-0.26 6.46 C1.59 4.2, 3.87 2.31, 4.7 0.01 M1.47 12.08 C3.89 8.67, 7.6 4.63, 10.08 0.63 M-0.08 11.4 C4.15 6.95, 8.08 3.47, 10.72 0.08 M-0.59 19.77 C6.07 11.52, 8.69 8.05, 14.9 1.21 M-0.01 17.9 C4.86 14.32, 7.86 9.74, 15.16 0.47 M0.07 25.41 C8.81 15.96, 15.55 7.13, 22.18 1.19 M0.33 24.32 C6.77 16.62, 13.65 7.96, 20.38 0.18 M-0.77 30.38 C6.52 21.8, 15.11 12.67, 27.18 2.2 M-0.17 29.68 C10.52 18.63, 20.5 6.05, 26.22 1.01 M0.35 37.27 C12.36 23.77, 23.59 11.83, 31.63 -1.46 M-0.51 37.54 C7.65 28.51, 13.92 19.57, 31.39 -0.8 M1.61 41.54 C11.85 27.21, 28.2 12.05, 34.97 0.77 M1.03 42.45 C9.36 31.3, 19.17 20.77, 36.87 -0.22 M-1.48 47.17 C12.71 31.53, 29.03 16.84, 44.16 -0.93 M-0.33 48.48 C13.16 34.16, 24.83 20.62, 41.91 -1.14 M1.15 54.73 C13.68 40.54, 24.66 25, 49.14 -1.37 M-0.64 54.29 C14.6 37.66, 27.99 21.65, 47.45 -0.01 M2.19 60.07 C11.68 48.15, 25.53 33.23, 52.66 -1.03 M0.88 60.71 C13.87 46.24, 25.21 32.33, 54.05 0.41 M4.76 59.35 C23.53 38.94, 44.15 15.98, 57.64 1.41 M5.78 60.76 C21.35 41.53, 37.75 21.23, 57.32 -0.6 M13.25 58.3 C21.32 49.4, 31.82 34.74, 65.1 0.35 M11.26 59.8 C21.81 47.24, 32.65 34.29, 63.87 0.59 M17.13 60.75 C32.39 41.5, 50.31 23.21, 69.46 -1.3 M16 61.01 C30.94 44.49, 44.97 27.58, 68.77 0.28 M23.58 62.02 C32.22 46.9, 42.3 34.59, 72.5 -0.75 M22.9 59.72 C32.55 46.9, 44.66 35.11, 73.42 -0.28 M28.82 60.28 C42.58 39.21, 62.14 20.91, 78.66 0.02 M26.44 59.75 C41.79 43.55, 56.47 27.5, 79.08 -0.55 M31.36 60.74 C50.73 38.79, 72.42 14.11, 84.96 1.67 M32.04 60.42 C48.54 41.03, 64.67 22.31, 84.71 -0.39 M38.65 59.17 C50.65 46.14, 61.53 32.35, 88.36 -1.17 M36.72 61.16 C57.15 36.86, 76.91 14.49, 90.49 0.25 M41.75 61.66 C60.03 43.76, 71.98 26.54, 95.63 -0.48 M41.86 60.09 C53.7 47.81, 63.77 36.54, 95.72 -0.38 M48.53 60.6 C58.29 46.22, 73.08 34.71, 98.74 0.51 M48.45 61 C70.14 36.48, 90.85 11.89, 100.23 0.55 M55.05 62.18 C66.22 45.91, 82.46 27.36, 104.72 -1.33 M52.55 61.75 C67.9 44.82, 83.08 28.42, 106.38 0.65 M59.43 61.67 C77.31 38.59, 96.1 16.6, 111.06 -1.6 M59.21 60.52 C74.66 42.72, 90.65 25.05, 110.46 0.75 M65.24 58.88 C77.68 47.25, 87.92 32.92, 114.87 -0.32 M63.92 60.17 C81 40.63, 97.31 22.4, 115.96 -0.13 M71.37 61.45 C80.64 46.83, 90.63 35.47, 123.61 1.77 M68.53 60.52 C79.08 47.64, 90.2 34.84, 122.34 -0.2 M75.39 60.28 C93.02 40.6, 107.47 19.9, 125.72 -1.23 M74.73 60.67 C86.84 45.55, 99.66 31.62, 127.67 -0.29 M79.45 60.9 C90.26 45.17, 102.8 31.26, 131.79 -0.19 M79.92 61.32 C100.57 35.58, 121.21 12.13, 131.98 -0.85 M85.62 58.84 C101.71 41.13, 115.46 22.25, 138.01 0.38 M84.72 61.08 C103.2 39.88, 121.51 19.53, 136.68 0.42 M89.82 58.97 C108.86 40.27, 127.09 16.72, 144.01 1.69 M90.86 60.78 C104.63 42.15, 120.28 25.2, 142.48 0.82 M97.12 58.95 C109.98 44.42, 125.97 28.18, 148.22 2.11 M96.63 59.79 C116.14 35.51, 136.94 12.96, 148.83 1.01 M99.69 60.51 C113.57 45.05, 130.48 27.15, 153.77 0.47 M100.8 60.3 C115.2 44.7, 127.47 29.55, 153.89 -0.68 M108.12 60.93 C126.83 37.57, 145.73 15.58, 159.87 -0.49 M106.11 59.69 C118.88 44.96, 133.03 29.18, 157.91 0.03 M113.34 60.33 C128.06 44.21, 141.05 25.57, 163.65 1.18 M111.15 60.79 C126.32 44.8, 138.51 30.85, 165.23 -0.28 M117.94 61.07 C134.65 42.52, 151.64 23.51, 167.56 2.08 M117.83 60.22 C137.74 37.02, 157.22 13.28, 169.68 -0.44 M122.11 59.15 C138.3 41.83, 152.82 22.73, 173.25 0.78 M123.3 60.7 C141.28 40.14, 159.37 18.66, 174.51 -0.39 M126.96 59.56 C139.6 45.79, 151.27 33.71, 180.93 1.23 M127.41 61.35 C145.3 41.41, 162.5 21.47, 179.85 -0.81 M132.42 59.66 C146.52 47.23, 155.12 34.82, 187.26 0.14 M132.6 60.01 C153.2 37.39, 171.92 15.43, 186.67 -0.88 M136.6 60.55 C148.63 47.35, 158.76 35.5, 188.7 -1.66 M137.42 59.58 C153.22 44.21, 168.22 25.87, 190.14 0.08 M145.71 58.46 C159.67 41.48, 171.57 25.81, 195.43 0.12 M144.37 60.25 C161.59 39.47, 179.47 19.59, 195.66 -1.1 M149.37 60.12 C158.56 49.04, 169.49 34.36, 202.66 0.69 M149.43 59.93 C163.84 43.07, 179.73 26.06, 202.21 0.88 M153.87 58.86 C164.9 46.86, 177.77 33.09, 208.57 1.47 M153.25 61.21 C174.44 36.58, 195.08 14.34, 206.36 0.13 M160.82 62.28 C174.7 42.26, 191.64 23.42, 213.64 1.52 M159.96 59.97 C171.36 47.46, 183.52 33.27, 211.68 -0.19 M165.8 59.85 C180 41.81, 195.44 22.94, 217.89 1.65 M163.81 59.96 C175.97 49.23, 186.58 36.34, 216.01 1.29 M171.58 59 C178.18 48.56, 188.88 37.71, 217.64 6.81 M170.5 59.79 C182.9 44.92, 195.63 30.45, 216.27 7.39 M175.49 60.59 C183.2 48.21, 196.67 39.24, 215.15 11.88 M174.61 61.35 C184.89 48.14, 195.64 37.3, 216.24 13.19 M179.32 62.17 C188.19 51.68, 197.24 39.23, 216.93 20.16 M181.52 60.02 C187.38 51.64, 195.67 41.66, 216.84 19.37 M184.67 61.45 C193.21 52.79, 202.31 42.03, 216.18 25.42 M184.86 61.04 C196.62 47.84, 206.36 35.77, 216.7 25.29 M190.81 59.62 C199.96 52.32, 206.19 44.73, 216.15 31.33 M190.45 59.8 C199.2 50.26, 207.56 41.68, 217.54 31.27 M198.1 60.74 C203.34 56.39, 207.43 48.53, 215.39 35.54 M195.73 60.19 C201.09 54.99, 205.61 51.66, 217.52 37.66 M201.84 59.11 C207.04 57.44, 208.21 52.01, 218.38 41.31 M201.69 60.83 C205.83 55.63, 211.21 51.55, 217.88 43.41 M207.47 59.18 C209.09 56.29, 212.04 52.92, 217.86 49.22 M206.49 61.29 C210.11 56.37, 215.11 52.66, 217.51 48.81 M212.81 60.3 C214.04 59.35, 214.59 57.8, 216.72 55.15 M212.61 59.98 C213.97 58.9, 214.96 58.22, 216.59 55.94" stroke="#fd7e14" stroke-width="0.5" fill="none"></path><path d="M1.44 -0.17 C76.5 1.34, 151.2 2.54, 217.54 -0.04 M-0.78 -0.11 C69.55 0.56, 139.77 1.85, 215.92 -0.49 M216.24 -0.88 C217.07 20.39, 216.18 41.1, 214.97 61.4 M215.44 0.37 C217.53 16.54, 216.99 32.86, 216.82 59.72 M216.74 58.79 C146.12 61.27, 78.43 61.75, -0.22 59.75 M216.18 59.91 C158.78 59.69, 102.12 58.96, -0.4 59.78 M0.83 61.71 C-1.55 43.83, 0.26 27.6, 0.37 0.43 M-0.39 60.42 C0.77 38.42, 0.25 16.62, 0.75 -0.53" stroke="#000000" stroke-width="1" fill="none"></path></g><g transform="translate(389.4220497223173 81.51636380962893) rotate(0 29 12.5)"><text x="29" y="18" font-family="Virgil, Segoe UI Emoji" font-size="20px" fill="#000000" text-anchor="middle" style="white-space: pre;" direction="ltr">Config</text></g><g stroke-linecap="round" transform="translate(651.5971727174043 93.44938422466169) rotate(0 94 76.2585307908458)"><path d="M0.48 1.15 L189.74 0.1 L187.12 151.26 L-1.78 154.41" stroke="none" stroke-width="0" fill="#fd7e14"></path><path d="M1.77 -0.94 C42.02 -2.49, 80.71 -0.27, 187.09 -1.97 M0.74 -0.57 C59.09 0.27, 119.4 -0.32, 188.38 -0.27 M188.94 -1.12 C190.43 45.2, 190.31 91.56, 189.5 153.06 M188.62 -0.53 C187.5 36.85, 186.85 72.69, 188.37 152.27 M187.07 152.93 C120.83 153.11, 49.62 153.84, -0.02 153.9 M188.27 152.02 C129.35 150.84, 70.62 152.15, 0.35 152.85 M-1.34 151.9 C-0.21 117.12, -0.38 77.86, -1.5 1.77 M0.18 152.44 C-0.78 121.85, -0.57 90.92, -0.26 -0.05" stroke="#000000" stroke-width="1" fill="none"></path></g><g transform="translate(656.5971727174043 144.7079150155075) rotate(0 89 25)"><text x="89" y="18" font-family="Virgil, Segoe UI Emoji" font-size="20px" fill="#000000" text-anchor="middle" style="white-space: pre;" direction="ltr">Your Next.js </text><text x="89" y="43" font-family="Virgil, Segoe UI Emoji" font-size="20px" fill="#000000" text-anchor="middle" style="white-space: pre;" direction="ltr">Blog / Docs...</text></g><g stroke-linecap="round"><g transform="translate(570.9391113040089 171.17442522302363) rotate(0 37.19579288483453 0.8609053611424997)"><path d="M2.28 -1.71 C14.9 -2.02, 62.87 -1.46, 74.31 -1.21 M0.08 3.53 C12.54 3.4, 59.87 1.23, 72.61 0.96" stroke="#000000" stroke-width="1" fill="none"></path></g><g transform="translate(570.9391113040089 171.17442522302363) rotate(0 37.19579288483453 0.8609053611424997)"><path d="M42.34 13.59 C47.88 5.55, 56.22 4.23, 71.2 4.76 M45.68 12.09 C52.49 9.44, 58.58 8.35, 70.84 0.24" stroke="#000000" stroke-width="1" fill="none"></path></g><g transform="translate(570.9391113040089 171.17442522302363) rotate(0 37.19579288483453 0.8609053611424997)"><path d="M41.64 -6.92 C47.44 -9.83, 55.96 -6.02, 71.2 4.76 M44.98 -8.42 C51.95 -6.68, 58.19 -3.37, 70.84 0.24" stroke="#000000" stroke-width="1" fill="none"></path></g></g><g stroke-linecap="round"><g transform="translate(238.87619530411598 172.0138939951947) rotate(0 24.446857180132838 -0.005528067893578736)"><path d="M-0.42 -0.91 C7.61 -1.05, 38.86 -1.26, 47.08 -1.24 M1.57 1.23 C10.07 1.3, 41.47 0.25, 49.31 0.15" stroke="#000000" stroke-width="1" fill="none"></path></g></g><g stroke-linecap="round"><g transform="translate(262.3444101421669 146.96183430157757) rotate(0 0.7347328020998702 24.09709007918346)"><path d="M-0.3 0.53 C0.01 8.3, 0.92 39.32, 1.03 47.17 M1.75 -0.24 C1.96 7.64, 0.48 40.25, 0.06 48.44" stroke="#000000" stroke-width="1" fill="none"></path></g></g></svg>